# xmcd
#
# Track frame offsets: 
#        150
#        14778
#        26043
#        40961
#        57314
#        74702
#        87425
#        100666
#        115147
#        127840
#        146842
#        162950
#
# Disc length: 2312 seconds
#
# Revision: 0
# Processed by: cddbd v1.5.2PL0 Copyright (c) Steve Scherf et al.
# Submitted via: ExactAudioCopy v1.3
#
DISCID=ac09060c
DTITLE=Missy Werner - Drifting and Dreaming
DYEAR=1900
DGENRE=Bluegrass
TTITLE0=Living in These Troubled Times
TTITLE1=Drifting and Dreaming
TTITLE2=Early Morning Breeze
TTITLE3=The Rope
TTITLE4=Bridge
TTITLE5=Gypsy, Joe and Me
TTITLE6=Goodbye
TTITLE7=All I Want is You
TTITLE8=In Memory
TTITLE9=Morning Train
TTITLE10=Plant Some Flowers
TTITLE11=Snowbird
EXTD=
EXTT0=
EXTT1=
EXTT2=
EXTT3=
EXTT4=
EXTT5=
EXTT6=
EXTT7=
EXTT8=
EXTT9=
EXTT10=
EXTT11=
PLAYORDER=
